<?xml version="1.0" encoding="UTF-8"?>
<!--Generator: Apple Native CoreSVG 232.5-->
<!DOCTYPE svg
PUBLIC "-//W3C//DTD SVG 1.1//EN"
       "http://www.w3.org/Graphics/SVG/1.1/DTD/svg11.dtd">
<svg version="1.1" xmlns="http://www.w3.org/2000/svg" xmlns:xlink="http://www.w3.org/1999/xlink" width="23.418" height="8.41797">
 <g>
  <rect height="8.41797" opacity="0" width="23.418" x="0" y="0"/>
  <path d="M1.03516 3.30566L9.5166 6.89453C10.2539 7.2168 10.8447 7.47559 11.5234 7.47559C12.2119 7.47559 12.8125 7.2168 13.5352 6.89453L22.0166 3.30566C22.627 3.03711 23.0566 2.5 23.0566 1.83594C23.0566 0.737305 22.2461 0 21.3037 0C20.7812 0 20.1123 0.302734 19.5752 0.546875L10.8936 4.19922L12.1582 4.19922L3.47656 0.546875C2.94434 0.302734 2.27539 0 1.75293 0C0.810547 0 0 0.737305 0 1.83594C0 2.5 0.424805 3.03711 1.03516 3.30566Z" fill="#ffffff" fill-opacity="0.85"/>
 </g>
</svg>
